<svg id="Слой_1" data-name="Слой 1" xmlns="http://www.w3.org/2000/svg" viewBox="0 0 606.2 86.49"><defs><style>.cls-1{fill:#fff;}</style></defs><title>logo_white</title><g id="Слой_1-2" data-name="Слой_1"><g id="_1998883203824" data-name=" 1998883203824"><path class="cls-1" d="M367.62,79.83c7.08,4.59,16.26,6.66,24.58,6.66,9.64,0,20.4-3,26.09-11.38a21.47,21.47,0,0,0,3.63-12.27c0-26.79-37.62-24.16-37.62-41.44,0-7.75,6.35-10.67,13.18-10.67a45.36,45.36,0,0,1,19.42,4.75V3.87C411,1.1,403.39,0,397,0c-10.58,0-21.33,4.29-25.45,14.74a21.77,21.77,0,0,0-1.49,8c0,25.69,37.61,23.16,37.61,41.44,0,8.71-8.45,11.6-15.81,11.6A35.3,35.3,0,0,1,372.63,70l-5,9.82Z" transform="translate(0 0)"/><path class="cls-1" d="M0,86.08H14.45L24.7,55.23H40.88L35.53,40.78H15.05Zm79.78,0H65.33l-28.94-85H50.84Z" transform="translate(0 0)"/><path class="cls-1" d="M176.52,1.05H162.07L147,46.34h14.44Zm-79.79,0h14.45l28.95,85H125.68Z" transform="translate(0 0)"/><polygon class="cls-1" points="303.71 86.08 318.16 86.08 344.8 86.08 344.8 71.63 318.16 71.63 318.16 1.05 303.71 1.05 303.71 71.63 303.71 86.08"/><path class="cls-1" d="M199.23,86.08h60.54V71.63H213.68v-20h46.09V37.14H199.23V86.08Zm0-85V15.5h60.54V1.05Z" transform="translate(0 0)"/><path class="cls-1" d="M544.38,1.05H581a25.24,25.24,0,0,1,25.17,25.16h0a25.15,25.15,0,0,1-9,19.26,25.09,25.09,0,0,1,8,18.4V86.08H593.84V68.43a20.18,20.18,0,0,0-9.76-17.24,25.45,25.45,0,0,1-3,.19H558.83v34.7H544.38V38.7h37.25a12.53,12.53,0,0,0,12.49-12.49h0a12.52,12.52,0,0,0-12.49-12.48H544.38Z" transform="translate(0 0)"/><path class="cls-1" d="M440.14,86.08h14.45l10.25-30.85H481l-5.35-14.45H455.2l-15.06,45.3Zm79.79,0H505.48l-29-85H491Z" transform="translate(0 0)"/></g></g></svg>